<?xml version="1.0"?><svg width="640" height="480" xmlns="http://www.w3.org/2000/svg" xmlns:xlink="http://www.w3.org/1999/xlink">
 <title>Water Splash</title>
 <defs>
  <linearGradient y2="1.885348" y1="1.885348" xlink:href="#linearGradient15251" x2="-0.55929" x1="-0.908534" id="linearGradient15392" gradientTransform="scale(1.08665, 0.920264)"/>
  <linearGradient y2="-1.224446" y1="-1.224446" xlink:href="#linearGradient15251" x2="3.498946" x1="3.057133" id="linearGradient15391" gradientTransform="scale(0.858679, 1.16458)"/>
  <linearGradient y2="-3.091436" y1="-3.091436" xlink:href="#linearGradient15251" x2="6.032261" x1="5.572028" id="linearGradient15390" gradientTransform="scale(0.824398, 1.21301)"/>
  <linearGradient y2="-4.283236" y1="-4.283236" xlink:href="#linearGradient15251" x2="11.326821" x1="10.734427" id="linearGradient15389" gradientTransform="scale(0.64054, 1.56118)"/>
  <linearGradient y2="-2.038832" y1="-2.038832" xlink:href="#linearGradient15251" x2="2.033256" x1="1.568474" id="linearGradient15388" gradientTransform="scale(0.816348, 1.22497)"/>
  <linearGradient y2="17.489376" y1="17.489376" xlink:href="#linearGradient15251" x2="-7.04999" x1="-7.282504" id="linearGradient15387" gradientTransform="scale(1.63176, 0.612837)"/>
  <linearGradient y2="4.06501" y1="4.06501" xlink:href="#linearGradient15251" x2="-4.72507" x1="-4.992158" id="linearGradient15386" gradientTransform="scale(1.42057, 0.703941)"/>
  <linearGradient y2="-1.663241" y1="-1.663241" xlink:href="#linearGradient15251" x2="1.04477" x1="0.591748" id="linearGradient15385" gradientTransform="scale(0.837549, 1.19396)"/>
  <linearGradient y2="0.195145" y1="0.195145" xlink:href="#linearGradient15251" x2="0.522588" x1="0.14891" id="linearGradient15384" gradientTransform="scale(1.01531, 0.984925)"/>
  <linearGradient y2="2.255182" y1="2.255182" xlink:href="#linearGradient15251" x2="-2.762934" x1="-3.048672" id="linearGradient15383" gradientTransform="scale(1.32786, 0.753093)"/>
  <linearGradient y2="0.102914" y1="0.102914" xlink:href="#linearGradient15251" x2="0.412594" x1="0.038692" id="linearGradient15380" gradientTransform="scale(1.01469, 0.985525)"/>
  <linearGradient y2="0.680677" y1="0.680677" xlink:href="#linearGradient15251" x2="-0.449034" x1="-0.785906" id="linearGradient15379" gradientTransform="scale(1.12636, 0.887817)"/>
  <linearGradient id="linearGradient15251">
   <stop stop-color="#11ffff" offset="0" id="stop15252"/>
   <stop stop-color="#e1ebff" stop-opacity="0" offset="1" id="stop15253"/>
  </linearGradient>
  <linearGradient y2="-0.469429" y1="-0.469429" xlink:href="#linearGradient15251" x2="2.127222" x1="1.649127" id="linearGradient15378" gradientTransform="scale(0.793649, 1.26)"/>
 </defs>
 <g>
  <title>Layer 1</title>
  <g id="svg_1" transform="rotate(-148.566 311.242 251.426)">
   <path fill="#56aaff" fill-rule="evenodd" stroke="#20a6ea" stroke-width="6.25" stroke-linecap="round" stroke-linejoin="round" stroke-miterlimit="4" stroke-opacity="0.683544" id="path593" d="m150.814056,307.209076c42.540161,-21.670898 41.441315,-19.664673 40.131714,-33.710876c-1.309601,-14.046204 -12.842316,-16.052429 -34.513245,-8.026306c-17.723801,7.844238 -70.632278,5.618591 -80.263939,-28.895386c-9.63166,-34.513214 24.881783,-65.816315 46.55307,-41.73703c21.670906,24.079254 61.803261,50.566315 65.816399,33.710846c7.008881,-25.857361 -22.620987,-17.043396 -20.032272,-27.677673c3.210098,-13.644714 23.242996,-10.046295 22.439987,-0.414734c-0.802368,9.631592 16.727478,4.149841 24.079285,-2.407684c6.834045,-6.095642 34.987183,-23.320221 -6.420807,-34.513214c-41.407974,-11.193085 -69.829483,-34.513245 -73.040237,-52.974091c-3.210754,-18.460724 40.131714,-22.474579 56.987137,-4.013741c16.855438,18.460762 36.118591,62.605598 58.592529,61.80323c6.708923,-0.869415 16.052368,0.80307 20.86853,-12.039307c4.81546,-12.842316 -24.881653,-17.658417 -20.066193,-29.697754c4.816132,-12.039978 38.526978,-24.882294 35.316284,-8.026855c-3.210815,16.855438 -3.210815,35.316895 4.816101,37.724609c8.026215,2.407745 21.670898,4.81546 20.066193,-10.43457c-1.605377,-15.250061 -16.855438,-45.750183 -22.474609,-74.64563c-2.407684,-24.078579 34.513916,-46.552549 48.961639,-27.289341c14.447052,19.26313 -3.210754,51.368618 -6.421509,64.210941c-3.210754,12.842377 5.618469,36.119324 19.263153,40.132446c13.644653,4.013092 40.57428,-4.159241 39.330048,-15.250092c-0.80307,-24.881592 25.68399,-23.276947 33.710175,-3.210693c5.6185,12.039276 1.605347,15.249329 -27.29007,27.289276c-13.643951,1.605408 -5.617798,40.934784 8.829285,36.921692c14.447662,-4.013123 56.184784,-53.7771 83.474091,-53.7771c27.290039,0 67.223206,29.873322 17.658508,58.593201c-36.31781,21.044067 -49.763245,-19.263824 -71.434845,-8.829224c-21.670837,10.433899 -32.907806,20.066193 -26.487,36.11792c6.420807,12.842346 15.250031,20.869202 20.86853,10.43457c5.618469,-10.433899 29.697784,-4.81543 31.303131,12.842407c-1.605347,16.052979 -22.473907,17.658386 -31.303131,11.236877c-8.828552,-6.420776 -23.276306,10.434692 -17.657837,19.263245c5.6185,8.829163 20.867889,34.513184 48.960297,25.684631c28.09314,-8.829285 76.250977,36.921692 63.40863,56.987854c-12.841614,20.065491 -53.776367,24.078552 -65.013306,8.828613c-11.237,-15.250122 -26.48703,-42.540161 -37.723999,-43.342529c-11.236969,-0.802368 -48.960938,3.210815 -45.750153,16.855408c3.210052,13.644653 28.092377,12.039368 31.302429,26.487122c3.210754,14.447571 -0.802368,32.105469 -20.065491,28.092346c-19.263824,-4.013123 -24.079346,-9.631592 -24.079346,-25.684631c0,-16.052429 -42.115509,-4.175598 -47.500732,1.89502c-6.372467,7.183472 -1.414795,7.944397 6.566071,28.605042c7.980804,20.660645 20.46701,28.493958 5.618469,49.763977c-14.848572,21.270081 -39.329376,17.657715 -44.145538,-8.026917c-1.604706,-26.487 17.658478,-58.591858 14.448425,-67.421021c-3.210754,-8.829285 -2.203064,-4.327026 -29.698456,-12.843018c-28.144684,-8.717224 -40.934723,2.409058 -41.737061,30.500793c-0.802368,19.263794 -4.012787,81.86908 -47.355576,52.97406c-43.342804,-28.895081 23.131699,-63.408081 37.473923,-90.42157c4.013153,-20.86853 -11.042084,-34.238892 -23.829285,-35.592102c-20.148972,-2.132141 -18.4608,4.815491 -37.723953,21.670898c-18.460815,16.052429 -48.158165,53.776428 -75.447662,14.447815c-14.447502,-24.079346 -6.421188,-41.737854 27.289703,-43.342468c29.697144,-0.803162 36.921021,-5.618591 43.342514,-8.829285z"/>
   <path fill="#56aaff" fill-rule="evenodd" stroke-width="1.24281" stroke-miterlimit="4" stroke-dashoffset="0" marker-start="none" marker-mid="none" marker-end="none" id="path634" d="m139.614395,107.205841c-0.538071,6.267906 5.163025,19.553825 7.781021,20.47464c1.686844,-0.940834 -4.428741,-14.529602 -0.123871,-17.45459c4.305191,-2.924889 11.693146,-3.02005 10.347809,-7.19873c0.982025,-6.505219 -13.968964,-5.849434 -18.004959,4.17868z"/>
   <path fill="#56aaff" fill-rule="evenodd" stroke-width="1.24281" stroke-miterlimit="4" stroke-dashoffset="0" marker-start="none" marker-mid="none" marker-end="none" id="path664" d="m257.692505,124.736664c-5.556519,5.592743 -0.769043,9.069031 3.203613,10.536774c3.308899,1.363831 -0.051086,-7.31131 6.652954,-10.786171c6.704437,-3.475029 13.783905,-7.115776 13.229523,-8.923485c-0.554108,-1.807549 -17.52951,3.580139 -23.08609,9.172882z"/>
   <path fill="#56aaff" fill-rule="evenodd" stroke-width="1.24281" stroke-miterlimit="4" stroke-dashoffset="0" marker-start="none" marker-mid="none" marker-end="none" id="path665" d="m302.106262,49.91354c-3.09198,4.565128 -8.151794,12.60675 -5.999237,16.785374c2.152313,4.178673 11.258423,-12.055172 15.563293,-14.980103c4.305206,-2.924961 12.465057,-4.642879 11.119751,-8.822052c-1.345306,-4.177639 -12.391418,-2.160069 -20.683807,7.016811l0,-0.000031z"/>
   <path fill="#56aaff" fill-rule="evenodd" stroke-width="1.24281" stroke-miterlimit="4" stroke-dashoffset="0" marker-start="none" marker-mid="none" marker-end="none" id="path2825" d="m476.582703,148.21109c-6.710022,3.687531 -11.682251,7.018311 -11.709839,13.439484c0.47937,4.675903 12.472961,-1.874481 17.548279,-3.027191c5.075623,-1.152588 11.772095,4.574768 15.412415,-7.500519c0.706238,-7.744751 -10.181946,-8.430603 -21.250854,-2.911774z"/>
   <path fill="#56aaff" fill-rule="evenodd" stroke-width="1.24281" stroke-miterlimit="4" stroke-dashoffset="0" marker-start="none" marker-mid="none" marker-end="none" id="path955" d="m88.512253,199.642883c-4.014725,4.283722 -6.833969,10.674408 -5.182289,15.232208c7.157883,3.19458 10.155884,-5.829468 13.618706,-7.909729c3.463043,-2.080292 8.057724,-6.669128 11.801018,-14.271729c-1.493095,-5.664734 -13.467751,0.282684 -20.237434,6.949249z"/>
   <path fill="#56aaff" fill-rule="evenodd" stroke-width="1.24281" stroke-miterlimit="4" stroke-dashoffset="0" marker-start="none" marker-mid="none" marker-end="none" id="path956" d="m79.611359,334.360077c-2.632385,9.293213 -0.654541,12.107422 1.498032,16.286133c2.152298,4.178589 3.017792,-10.806335 7.322662,-13.731323c4.305206,-2.924988 10.762375,-7.674255 9.417007,-11.852844c-1.345001,-4.178162 -14.201691,-0.729919 -18.237701,9.298035z"/>
   <path fill="#56aaff" fill-rule="evenodd" stroke-width="1.24281" stroke-miterlimit="4" stroke-dashoffset="0" marker-start="none" marker-mid="none" marker-end="none" id="path1578" d="m396.110107,125.954742c1.010651,-5.006561 2.49646,-5.777679 6.219727,-7.17395c4.461273,-0.902519 9.881683,0.221039 11.743317,2.548096c2.09433,3.257874 5.895447,7.627594 -3.257874,2.79245c-4.762146,-1.918091 -8.645111,-3.655121 -8.088165,-0.028229c2.792419,5.58493 -7.587738,5.918854 -6.617004,1.861633z"/>
   <path fill="#56aaff" fill-rule="evenodd" stroke-width="1.24281" stroke-miterlimit="4" stroke-dashoffset="0" marker-start="none" marker-mid="none" marker-end="none" id="path1579" d="m433.055969,242.285736c3.257874,-5.5849 5.352142,-7.911926 11.1698,-6.748413c5.817627,1.163513 14.195007,9.075439 6.050293,6.748413c-8.144653,-2.327026 -9.075439,0.69812 -13.031464,0.69812c-3.955963,0 -4.188629,-0.69812 -4.188629,-0.69812z"/>
   <path fill="#56aaff" fill-rule="evenodd" stroke-width="1.24281" stroke-miterlimit="4" stroke-dashoffset="0" marker-start="none" marker-mid="none" marker-end="none" id="path2204" d="m175.537399,415.310333c-5.350189,9.221436 -3.968704,16.062378 -1.394745,20.17041c7.669952,1.616516 8.701447,-10.628906 11.648865,-13.391357c2.947586,-2.762634 6.008072,-9.611938 8.067368,-17.832153c-2.651947,-5.223633 -13.106613,3.111023 -18.321487,11.053101z"/>
   <path fill="#56aaff" fill-rule="evenodd" stroke-width="1.24281" stroke-miterlimit="4" stroke-dashoffset="0" marker-start="none" marker-mid="none" marker-end="none" id="path2205" d="m289.942871,449.1091c-1.078766,-4.912354 -2.164581,-10.386169 1.308258,-23.023499c3.57077,-12.993591 8.487762,-10.039368 11.009491,-6.746094c-3.364685,14.566467 -5.160339,19.771118 -12.317749,29.769592z"/>
   <path fill="#56aaff" fill-rule="evenodd" stroke-width="1.24281" stroke-miterlimit="4" stroke-dashoffset="0" marker-start="none" marker-mid="none" marker-end="none" id="path3450" d="m373.113068,389.217438c-4.403595,-5.110779 -5.931946,-7.923584 -2.312286,-12.883545c3.61969,-4.959717 15.262726,-9.768799 9.475311,-3.086182c-5.787445,6.682556 -3.055298,8.677612 -4.700806,12.346252c-1.645538,3.668701 -2.462219,3.623474 -2.462219,3.623474z"/>
   <path fill="#56aaff" fill-rule="evenodd" stroke-width="1.24281" stroke-miterlimit="4" stroke-dashoffset="0" marker-start="none" marker-mid="none" marker-end="none" id="path3451" d="m446.653442,320.574493c-6.497925,13.287109 1.405396,20.257568 2.753052,25.228821c5.840332,3.484436 -1.917114,-8.512085 5.741516,-18.677795c9.807068,-10.165833 8.185669,-0.095154 12.314026,-9.105469c-1.218262,-6.178589 -17.433105,-2.56311 -20.808594,2.554443z"/>
   <path fill="#56aaff" fill-rule="evenodd" stroke-width="1.24281" stroke-miterlimit="4" stroke-dashoffset="0" marker-start="none" marker-mid="none" marker-end="none" id="path3453" d="m172.325821,201.00528c2.573029,-5.447784 6.096802,-6.202759 8.868011,-6.035126c2.771301,0.167664 -2.431107,1.56601 -4.249252,5.69986c-1.833786,4.169434 -5.727264,2.682281 -4.618759,0.335266z"/>
  </g>
 </g>
</svg>